<svg width="1440" height="992" viewBox="0 0 1440 992" fill="none" xmlns="http://www.w3.org/2000/svg">
<g clip-path="url(#clip0_226_876)">
<mask id="mask0_226_876" style="mask-type:luminance" maskUnits="userSpaceOnUse" x="0" y="0" width="1440" height="992">
<path d="M1440 0H0V992H1440V0Z" fill="white"/>
</mask>
<g mask="url(#mask0_226_876)">
<path d="M1440 0H0V992H1440V0Z" fill="#F3F4F6"/>
<g opacity="0.4">
<path d="M1440 0H0V1320H1440V0Z" fill="white"/>
<path d="M1464 672.5H-24" stroke="#EA580C" stroke-opacity="0.5"/>
<path d="M1464 696.5H-24" stroke="#EA580C" stroke-opacity="0.5"/>
<path d="M1464 720.5H-24" stroke="#EA580C" stroke-opacity="0.5"/>
<path d="M1464 744.5H-24" stroke="#EA580C" stroke-opacity="0.5"/>
<path d="M1464 768.5H-24" stroke="#EA580C" stroke-opacity="0.5"/>
<path d="M1464 792.5H-24" stroke="#EA580C" stroke-opacity="0.5"/>
<path d="M1464 816.5H-24" stroke="#EA580C" stroke-opacity="0.5"/>
<path d="M1464 840.5H-24" stroke="#EA580C" stroke-opacity="0.5"/>
<path d="M1464 864.5H-24" stroke="#EA580C" stroke-opacity="0.5"/>
<path d="M1464 888.5H-24" stroke="#EA580C" stroke-opacity="0.5"/>
<path d="M1464 912.5H-24" stroke="#EA580C" stroke-opacity="0.5"/>
<path d="M1464 936.5H-24" stroke="#EA580C" stroke-opacity="0.5"/>
<path d="M1464 960.5H-24" stroke="#EA580C" stroke-opacity="0.5"/>
<path d="M1464 984.5H-24" stroke="#EA580C" stroke-opacity="0.5"/>
<path d="M24.5 648V1368" stroke="#EA580C" stroke-opacity="0.5"/>
<path d="M24.5 648V1368" stroke="#EA580C" stroke-opacity="0.5"/>
<path d="M48.5 648V1368" stroke="#EA580C" stroke-opacity="0.5"/>
<path d="M72.5 648V1368" stroke="#EA580C" stroke-opacity="0.5"/>
<path d="M96.5 648V1368" stroke="#EA580C" stroke-opacity="0.5"/>
<path d="M120.5 648V1368" stroke="#EA580C" stroke-opacity="0.5"/>
<path d="M144.5 648V1368" stroke="#EA580C" stroke-opacity="0.5"/>
<path d="M168.5 648V1368" stroke="#EA580C" stroke-opacity="0.5"/>
<path d="M192.5 648V1368" stroke="#EA580C" stroke-opacity="0.5"/>
<path d="M216.5 648V1368" stroke="#EA580C" stroke-opacity="0.5"/>
<path d="M240.5 648V1368" stroke="#EA580C" stroke-opacity="0.5"/>
<path d="M264.5 648V1368" stroke="#EA580C" stroke-opacity="0.5"/>
<path d="M288.5 648V1368" stroke="#EA580C" stroke-opacity="0.5"/>
<path d="M312.5 648V1368" stroke="#EA580C" stroke-opacity="0.5"/>
<path d="M336.5 648V1368" stroke="#EA580C" stroke-opacity="0.5"/>
<path d="M360.5 648V1368" stroke="#EA580C" stroke-opacity="0.5"/>
<path d="M384.5 648V1368" stroke="#EA580C" stroke-opacity="0.5"/>
<path d="M408.5 648V1368" stroke="#EA580C" stroke-opacity="0.5"/>
<path d="M432.5 648V1368" stroke="#EA580C" stroke-opacity="0.5"/>
<path d="M456.5 648V1368" stroke="#EA580C" stroke-opacity="0.5"/>
<path d="M480.5 648V1368" stroke="#EA580C" stroke-opacity="0.5"/>
<path d="M504.5 648V1368" stroke="#EA580C" stroke-opacity="0.5"/>
<path d="M528.5 648V1368" stroke="#EA580C" stroke-opacity="0.5"/>
<path d="M552.5 648V1368" stroke="#EA580C" stroke-opacity="0.5"/>
<path d="M576.5 648V1368" stroke="#EA580C" stroke-opacity="0.5"/>
<path d="M600.5 648V1368" stroke="#EA580C" stroke-opacity="0.5"/>
<path d="M624.5 648V1368" stroke="#EA580C" stroke-opacity="0.5"/>
<path d="M648.5 648V1368" stroke="#EA580C" stroke-opacity="0.5"/>
<path d="M672.5 648V1368" stroke="#EA580C" stroke-opacity="0.5"/>
<path d="M696.5 648V1368" stroke="#EA580C" stroke-opacity="0.5"/>
<path d="M720.5 648V1368" stroke="#EA580C" stroke-opacity="0.5"/>
<path d="M744.5 648V1368" stroke="#EA580C" stroke-opacity="0.5"/>
<path d="M768.5 648V1368" stroke="#EA580C" stroke-opacity="0.5"/>
<path d="M792.5 648V1368" stroke="#EA580C" stroke-opacity="0.5"/>
<path d="M816.5 648V1368" stroke="#EA580C" stroke-opacity="0.5"/>
<path d="M840.5 648V1368" stroke="#EA580C" stroke-opacity="0.5"/>
<path d="M864.5 648V1368" stroke="#EA580C" stroke-opacity="0.5"/>
<path d="M888.5 648V1368" stroke="#EA580C" stroke-opacity="0.5"/>
<path d="M912.5 648V1368" stroke="#EA580C" stroke-opacity="0.5"/>
<path d="M936.5 648V1368" stroke="#EA580C" stroke-opacity="0.5"/>
<path d="M960.5 648V1368" stroke="#EA580C" stroke-opacity="0.5"/>
<path d="M984.5 648V1368" stroke="#EA580C" stroke-opacity="0.5"/>
<path d="M1008.5 648V1368" stroke="#EA580C" stroke-opacity="0.5"/>
<path d="M1032.5 648V1368" stroke="#EA580C" stroke-opacity="0.5"/>
<path d="M1056.5 648V1368" stroke="#EA580C" stroke-opacity="0.5"/>
<path d="M1080.5 648V1368" stroke="#EA580C" stroke-opacity="0.5"/>
<path d="M1104.5 648V1368" stroke="#EA580C" stroke-opacity="0.5"/>
<path d="M1128.5 648V1368" stroke="#EA580C" stroke-opacity="0.5"/>
<path d="M1152.5 648V1368" stroke="#EA580C" stroke-opacity="0.5"/>
<path d="M1176.5 648V1368" stroke="#EA580C" stroke-opacity="0.5"/>
<path d="M1200.5 648V1368" stroke="#EA580C" stroke-opacity="0.5"/>
<path d="M1224.5 648V1368" stroke="#EA580C" stroke-opacity="0.5"/>
<path d="M1248.5 648V1368" stroke="#EA580C" stroke-opacity="0.5"/>
<path d="M1272.5 648V1368" stroke="#EA580C" stroke-opacity="0.5"/>
<path d="M1296.5 648V1368" stroke="#EA580C" stroke-opacity="0.5"/>
<path d="M1320.5 648V1368" stroke="#EA580C" stroke-opacity="0.5"/>
<path d="M1344.5 648V1368" stroke="#EA580C" stroke-opacity="0.5"/>
<path d="M1368.5 648V1368" stroke="#EA580C" stroke-opacity="0.5"/>
<path d="M1392.5 648V1368" stroke="#EA580C" stroke-opacity="0.5"/>
<path d="M1416.5 648V1368" stroke="#EA580C" stroke-opacity="0.5"/>
<path d="M0.500031 -48L0.5 672" stroke="#EA580C" stroke-opacity="0.5"/>
<path d="M1464 0.5H-24" stroke="#EA580C" stroke-opacity="0.5"/>
<path d="M1464 24.5H-24" stroke="#EA580C" stroke-opacity="0.5"/>
<path d="M1464 48.5H-24" stroke="#EA580C" stroke-opacity="0.5"/>
<path d="M1464 72.5H-24" stroke="#EA580C" stroke-opacity="0.5"/>
<path d="M1464 96.5H-24" stroke="#EA580C" stroke-opacity="0.5"/>
<path d="M1464 120.5H-24" stroke="#EA580C" stroke-opacity="0.5"/>
<path d="M1464 144.5H-24" stroke="#EA580C" stroke-opacity="0.5"/>
<path d="M1464 168.5H-24" stroke="#EA580C" stroke-opacity="0.5"/>
<path d="M1464 192.5H-24" stroke="#EA580C" stroke-opacity="0.5"/>
<path d="M1464 216.5H-24" stroke="#EA580C" stroke-opacity="0.5"/>
<path d="M1464 240.5H-24" stroke="#EA580C" stroke-opacity="0.5"/>
<path d="M1464 264.5H-24" stroke="#EA580C" stroke-opacity="0.5"/>
<path d="M1464 288.5H-24" stroke="#EA580C" stroke-opacity="0.5"/>
<path d="M1464 312.5H-24" stroke="#EA580C" stroke-opacity="0.5"/>
<path d="M1464 336.5H-24" stroke="#EA580C" stroke-opacity="0.5"/>
<path d="M1464 360.5H-24" stroke="#EA580C" stroke-opacity="0.5"/>
<path d="M1464 384.5H-24" stroke="#EA580C" stroke-opacity="0.5"/>
<path d="M1464 408.5H-24" stroke="#EA580C" stroke-opacity="0.5"/>
<path d="M1464 432.5H-24" stroke="#EA580C" stroke-opacity="0.5"/>
<path d="M1464 456.5H-24" stroke="#EA580C" stroke-opacity="0.5"/>
<path d="M1464 480.5H-24" stroke="#EA580C" stroke-opacity="0.5"/>
<path d="M1464 504.5H-24" stroke="#EA580C" stroke-opacity="0.5"/>
<path d="M1464 528.5H-24" stroke="#EA580C" stroke-opacity="0.5"/>
<path d="M1464 552.5H-24" stroke="#EA580C" stroke-opacity="0.5"/>
<path d="M1464 576.5H-24" stroke="#EA580C" stroke-opacity="0.5"/>
<path d="M1464 600.5H-24" stroke="#EA580C" stroke-opacity="0.5"/>
<path d="M1464 624.5H-24" stroke="#EA580C" stroke-opacity="0.5"/>
<path d="M1464 648.5H-24" stroke="#EA580C" stroke-opacity="0.5"/>
<path d="M24.5 -48V672" stroke="#EA580C" stroke-opacity="0.5"/>
<path d="M24.5 -48V672" stroke="#EA580C" stroke-opacity="0.5"/>
<path d="M48.5 -48V672" stroke="#EA580C" stroke-opacity="0.5"/>
<path d="M72.5 -48V672" stroke="#EA580C" stroke-opacity="0.5"/>
<path d="M96.5 -48V672" stroke="#EA580C" stroke-opacity="0.5"/>
<path d="M120.5 -48V672" stroke="#EA580C" stroke-opacity="0.5"/>
<path d="M144.5 -48V672" stroke="#EA580C" stroke-opacity="0.5"/>
<path d="M168.5 -48V672" stroke="#EA580C" stroke-opacity="0.5"/>
<path d="M192.5 -48V672" stroke="#EA580C" stroke-opacity="0.5"/>
<path d="M216.5 -48V672" stroke="#EA580C" stroke-opacity="0.5"/>
<path d="M240.5 -48V672" stroke="#EA580C" stroke-opacity="0.5"/>
<path d="M264.5 -48V672" stroke="#EA580C" stroke-opacity="0.5"/>
<path d="M288.5 -48V672" stroke="#EA580C" stroke-opacity="0.5"/>
<path d="M312.5 -48V672" stroke="#EA580C" stroke-opacity="0.5"/>
<path d="M336.5 -48V672" stroke="#EA580C" stroke-opacity="0.5"/>
<path d="M360.5 -48V672" stroke="#EA580C" stroke-opacity="0.5"/>
<path d="M384.5 -48V672" stroke="#EA580C" stroke-opacity="0.5"/>
<path d="M408.5 -48V672" stroke="#EA580C" stroke-opacity="0.5"/>
<path d="M432.5 -48V672" stroke="#EA580C" stroke-opacity="0.5"/>
<path d="M456.5 -48V672" stroke="#EA580C" stroke-opacity="0.5"/>
<path d="M480.5 -48V672" stroke="#EA580C" stroke-opacity="0.5"/>
<path d="M504.5 -48V672" stroke="#EA580C" stroke-opacity="0.5"/>
<path d="M528.5 -48V672" stroke="#EA580C" stroke-opacity="0.5"/>
<path d="M552.5 -48V672" stroke="#EA580C" stroke-opacity="0.5"/>
<path d="M576.5 -48V672" stroke="#EA580C" stroke-opacity="0.5"/>
<path d="M600.5 -48V672" stroke="#EA580C" stroke-opacity="0.5"/>
<path d="M624.5 -48V672" stroke="#EA580C" stroke-opacity="0.5"/>
<path d="M648.5 -48V672" stroke="#EA580C" stroke-opacity="0.5"/>
<path d="M672.5 -48V672" stroke="#EA580C" stroke-opacity="0.5"/>
<path d="M696.5 -48V672" stroke="#EA580C" stroke-opacity="0.5"/>
<path d="M720.5 -48V672" stroke="#EA580C" stroke-opacity="0.5"/>
<path d="M744.5 -48V672" stroke="#EA580C" stroke-opacity="0.5"/>
<path d="M768.5 -48V672" stroke="#EA580C" stroke-opacity="0.5"/>
<path d="M792.5 -48V672" stroke="#EA580C" stroke-opacity="0.5"/>
<path d="M816.5 -48V672" stroke="#EA580C" stroke-opacity="0.5"/>
<path d="M840.5 -48V672" stroke="#EA580C" stroke-opacity="0.5"/>
<path d="M864.5 -48V672" stroke="#EA580C" stroke-opacity="0.5"/>
<path d="M888.5 -48V672" stroke="#EA580C" stroke-opacity="0.5"/>
<path d="M912.5 -48V672" stroke="#EA580C" stroke-opacity="0.5"/>
<path d="M936.5 -48V672" stroke="#EA580C" stroke-opacity="0.5"/>
<path d="M960.5 -48V672" stroke="#EA580C" stroke-opacity="0.5"/>
<path d="M984.5 -48V672" stroke="#EA580C" stroke-opacity="0.5"/>
<path d="M1008.5 -48V672" stroke="#EA580C" stroke-opacity="0.5"/>
<path d="M1032.5 -48V672" stroke="#EA580C" stroke-opacity="0.5"/>
<path d="M1056.5 -48V672" stroke="#EA580C" stroke-opacity="0.5"/>
<path d="M1080.5 -48V672" stroke="#EA580C" stroke-opacity="0.5"/>
<path d="M1104.5 -48V672" stroke="#EA580C" stroke-opacity="0.5"/>
<path d="M1128.5 -48V672" stroke="#EA580C" stroke-opacity="0.5"/>
<path d="M1152.5 -48V672" stroke="#EA580C" stroke-opacity="0.5"/>
<path d="M1176.5 -48V672" stroke="#EA580C" stroke-opacity="0.5"/>
<path d="M1200.5 -48V672" stroke="#EA580C" stroke-opacity="0.5"/>
<path d="M1224.5 -48V672" stroke="#EA580C" stroke-opacity="0.5"/>
<path d="M1248.5 -48V672" stroke="#EA580C" stroke-opacity="0.5"/>
<path d="M1272.5 -48V672" stroke="#EA580C" stroke-opacity="0.5"/>
<path d="M1296.5 -48V672" stroke="#EA580C" stroke-opacity="0.5"/>
<path d="M1320.5 -48V672" stroke="#EA580C" stroke-opacity="0.5"/>
<path d="M1344.5 -48V672" stroke="#EA580C" stroke-opacity="0.5"/>
<path d="M1368.5 -48V672" stroke="#EA580C" stroke-opacity="0.5"/>
<path d="M1392.5 -48V672" stroke="#EA580C" stroke-opacity="0.5"/>
<path d="M1416.5 -48V672" stroke="#EA580C" stroke-opacity="0.5"/>
</g>
<path d="M1440 0H0V992H1440V0Z" fill="url(#paint0_radial_226_876)"/>
</g>
</g>
<defs>
<radialGradient id="paint0_radial_226_876" cx="0" cy="0" r="1" gradientUnits="userSpaceOnUse" gradientTransform="translate(720 496) rotate(90) scale(496 720)">
<stop stop-color="white" stop-opacity="0"/>
<stop offset="1" stop-color="#F3F4F6"/>
</radialGradient>
<clipPath id="clip0_226_876">
<rect width="1440" height="992" fill="white"/>
</clipPath>
</defs>
</svg>
